<?xml version="1.0" encoding="utf-8"?>
<!-- Uploaded to: SVG Repo, www.svgrepo.com, Generator: SVG Repo Mixer Tools -->
<svg fill="#000000" width="800px" height="800px" viewBox="0 0 32 32" version="1.1" xmlns="http://www.w3.org/2000/svg">
<title>adobecreativecloud</title>
<path d="M10.434 10.388c0.012-0 0.026-0 0.040-0 1.926 0 3.67 0.778 4.936 2.037l-0-0c1.067 1.002 2.046 2.044 3.074 3.087 0.177 0.171 0.287 0.411 0.287 0.677 0 0.131-0.027 0.257-0.076 0.37l0.002-0.006c-0.135 0.357-0.461 0.611-0.85 0.64l-0.003 0c-0.037 0.005-0.079 0.008-0.122 0.008-0.264 0-0.502-0.114-0.667-0.295l-0.001-0.001c-0.98-0.98-1.958-1.946-2.924-2.937-0.739-0.764-1.714-1.295-2.807-1.478l-0.030-0.004c-0.268-0.048-0.576-0.076-0.89-0.076-2.9 0-5.251 2.351-5.251 5.251 0 2.481 1.721 4.561 4.035 5.109l0.036 0.007c0.436 0.087 0.937 0.136 1.45 0.136 0.148 0 0.295-0.004 0.441-0.012l-0.020 0.001c0.011-0.001 0.023-0.001 0.036-0.001 0.145 0 0.275 0.063 0.364 0.163l0 0c0.604 0.591 1.243 1.181 1.871 1.769 0.037 0.038 0.087 0.075 0.125 0.112-0.075 0-0.125 0.012-0.175 0.012h-2.874c-3.465-0.001-6.365-2.419-7.105-5.659l-0.009-0.049c-0.114-0.481-0.18-1.033-0.18-1.601 0-3.225 2.116-5.956 5.035-6.88l0.051-0.014c0.655-0.215 1.409-0.348 2.192-0.367l0.010-0zM19.938 7.060c0.024-0 0.053-0 0.081-0 2.66 0 5.044 1.185 6.651 3.057l0.010 0.012c1.358 1.564 2.185 3.62 2.185 5.869 0 0.417-0.028 0.827-0.083 1.229l0.005-0.047c-0.525 3.753-3.303 6.735-6.904 7.555l-0.060 0.012c-0.586 0.134-1.259 0.211-1.95 0.211-0.441 0-0.874-0.031-1.298-0.092l0.049 0.006c-1.423-0.166-2.7-0.681-3.776-1.458l0.024 0.016c-0.312-0.224-0.586-0.459-0.839-0.715l-0.001-0.001c-1.532-1.506-3.049-3.024-4.581-4.53-0.203-0.178-0.33-0.438-0.33-0.728 0-0.16 0.039-0.312 0.108-0.445l-0.003 0.005c0.166-0.357 0.522-0.6 0.934-0.6 0.051 0 0.101 0.004 0.15 0.011l-0.006-0.001c0.263 0.042 0.489 0.174 0.651 0.363l0.001 0.002c1.381 1.392 2.749 2.76 4.129 4.154 1.004 1.024 2.339 1.72 3.832 1.916l0.033 0.004c0.324 0.056 0.698 0.088 1.079 0.088 2.025 0 3.839-0.902 5.062-2.326l0.007-0.009c0.848-0.951 1.439-2.149 1.652-3.473l0.005-0.039c0.068-0.355 0.107-0.764 0.107-1.182 0-1.58-0.557-3.029-1.485-4.163l0.009 0.012c-1.277-1.637-3.251-2.68-5.468-2.68-1.39 0-2.685 0.41-3.769 1.116l0.027-0.016c-0.027 0.016-0.060 0.025-0.095 0.025-0.025 0-0.048-0.005-0.070-0.013l0.001 0c-0.509-0.381-1.085-0.736-1.691-1.038l-0.066-0.030c-0.010-0.011-0.018-0.023-0.025-0.037l-0-0.001c0.457-0.383 0.972-0.725 1.522-1.007l0.047-0.022c0.954-0.528 2.077-0.879 3.27-0.978l0.030-0.002q0.418-0.032 0.837-0.030zM19.477 4.944c-0.289 0.025-0.59 0.050-0.878 0.087-1.314 0.15-2.511 0.518-3.599 1.070l0.060-0.028c-1.188 0.589-2.203 1.332-3.072 2.219l-0.002 0.002c-0.034 0.040-0.085 0.066-0.141 0.066-0.012 0-0.024-0.001-0.036-0.004l0.001 0c-0.412-0.064-0.888-0.1-1.373-0.1-4.013 0-7.441 2.504-8.807 6.035l-0.022 0.064c-0.313 0.787-0.519 1.697-0.576 2.649l-0.001 0.024c-0.001 0.058-0.010 0.114-0.026 0.167l0.001-0.004v0.966c0.025 0.251 0.063 0.49 0.087 0.741 0.133 1.083 0.443 2.066 0.902 2.961l-0.023-0.050c1.001 2.019 2.651 3.59 4.671 4.468l0.060 0.023c0.897 0.406 1.94 0.672 3.036 0.74l0.025 0.001c0.038 0 0.075 0.005 0.111 0.013l-0.003-0.001h10.717c0.229-0.021 0.452-0.044 0.684-0.075 1.304-0.15 2.492-0.518 3.572-1.070l-0.059 0.027c1.901-0.942 3.448-2.352 4.529-4.082l0.027-0.047c0.717-1.105 1.236-2.407 1.471-3.805l0.008-0.060c0.062-0.425 0.1-0.865 0.151-1.292 0.001-0.058 0.010-0.114 0.026-0.167l-0.001 0.004v-0.992c-0.025-0.287-0.062-0.565-0.062-0.827-0.15-1.305-0.518-2.493-1.070-3.573l0.027 0.059c-0.955-1.899-2.372-3.444-4.107-4.527l-0.047-0.027c-1.098-0.708-2.391-1.223-3.778-1.46l-0.061-0.009c-0.452-0.075-0.891-0.112-1.343-0.162-0.063-0.002-0.123-0.011-0.181-0.026l0.006 0.001z"></path>
</svg>