<svg width="175" height="51" viewBox="0 0 175 51" fill="none" xmlns="http://www.w3.org/2000/svg">
<path d="M28.4857 24.4944V38.7358H20.2504V0.0515472C20.2943 0.0383952 20.3535 0.00332339 20.4126 0.00332339C23.8913 0.00770737 27.37 -0.0207885 30.8465 0.0362033C32.5672 0.0646991 34.277 0.288282 35.921 0.853816C38.2642 1.66047 39.4895 3.2124 39.5969 5.68935C39.678 7.58542 39.6627 9.48588 39.6737 11.3841C39.6846 13.495 39.689 15.6059 39.6715 17.7168C39.6605 18.8566 39.5246 19.9789 39.0818 21.0486C38.3344 22.857 36.8548 23.6681 35.0398 24.0341C33.1678 24.4133 31.274 24.4988 29.3713 24.4988C29.0995 24.4988 28.8277 24.4988 28.4835 24.4988L28.4857 24.4944ZM28.5164 5.52276C28.5055 5.72223 28.4901 5.88224 28.4901 6.04007C28.4901 10.161 28.4901 14.282 28.4901 18.4029C28.4901 18.4993 28.4594 18.6155 28.4989 18.69C28.5559 18.7975 28.6567 18.9399 28.7554 18.9553C30.1999 19.1745 31.3638 18.1815 31.3682 16.7304C31.3726 14.9132 31.3682 13.0961 31.3682 11.2789C31.3682 10.0624 31.366 8.84582 31.3682 7.62926C31.3682 6.97824 31.1885 6.40832 30.6251 6.02472C29.996 5.59728 29.2858 5.50741 28.5142 5.52276H28.5164Z" fill="#DC1F26"/>
<path d="M18.4311 0.0166626V0.672068C18.4311 11.0336 18.4311 21.3952 18.4311 31.7545C18.4311 35.6519 16.8156 37.7781 13.0191 38.6724C10.2462 39.3256 7.45361 39.4155 4.70924 38.4576C3.61105 38.074 2.59616 37.5304 1.71717 36.7654C0.662825 35.8513 0.0205719 34.7115 0.011804 33.2933C-0.00792396 30.0448 0.003036 26.7984 0.003036 23.5499C0.003036 23.4578 0.0293399 23.3636 0.0490678 23.243H7.50403C7.50403 23.4447 7.50403 23.62 7.50403 23.7932C7.50403 26.7173 7.50622 29.6392 7.50184 32.5634C7.50184 33.0083 7.53253 33.438 8.01696 33.6133C8.55399 33.8106 9.11076 33.8435 9.59738 33.4884C9.74644 33.3788 9.82973 33.1442 9.88234 32.9513C9.93276 32.7694 9.90645 32.5655 9.90645 32.3705C9.90645 21.8138 9.90645 11.2594 9.90645 0.702756C9.90645 0.479173 9.90645 0.257782 9.90645 0.0166626H18.4311Z" fill="#DC1F26"/>
<path d="M151.621 38.9155H147.18V14.7927H148.153C149.681 14.7927 151.209 14.808 152.737 14.7817C153.122 14.7751 153.263 14.9089 153.357 15.2618C154.234 18.4993 155.128 21.7325 156.018 24.9679C156.055 25.1016 156.097 25.2353 156.215 25.3559V14.8299H160.645V38.9199C160.479 38.9287 160.308 38.9419 160.137 38.944C158.657 38.944 157.178 38.9265 155.7 38.9572C155.288 38.966 155.146 38.8213 155.043 38.4487C153.979 34.6061 152.899 30.7679 151.823 26.9297C151.785 26.7938 151.741 26.6601 151.621 26.533V38.9177V38.9155Z" fill="white"/>
<path d="M90.8435 25.768C91.0408 25.836 91.1767 25.882 91.3126 25.9302C93.1955 26.5812 94.103 28.017 94.0066 30.0095C93.8904 32.4558 93.8137 34.9108 94.2564 37.3373C94.3551 37.8832 94.5765 38.407 94.754 38.977C93.8926 38.977 92.9895 38.977 92.0864 38.977C91.42 38.977 90.7515 38.9419 90.0873 38.9901C89.616 39.0252 89.3617 38.8279 89.285 38.4158C89.1009 37.4469 88.8444 36.4737 88.8159 35.4983C88.7502 33.3107 88.7962 31.1187 88.8115 28.9289C88.8203 27.8175 88.3841 27.3704 87.1895 27.3945V38.9222H81.8936V14.8212C82.0383 14.8124 82.1786 14.7949 82.3189 14.7949C84.4166 14.7949 86.5143 14.7861 88.6099 14.7949C89.8812 14.8015 91.0846 15.0952 92.196 15.7375C93.3161 16.3841 93.9123 17.3639 93.9605 18.6375C94.0066 19.8694 94.0131 21.1078 93.9605 22.3397C93.8991 23.8062 93.0333 24.7487 91.7707 25.3735C91.4967 25.5094 91.2052 25.6168 90.8435 25.768ZM87.2223 24.3936C88.3973 24.3761 88.7918 23.9859 88.7918 22.8724C88.7918 21.6887 88.7918 20.5029 88.7918 19.3192C88.7918 18.3394 88.2438 17.8615 87.2223 17.958V24.3936Z" fill="white"/>
<path d="M41.3615 27.024C41.3615 24.5405 41.3615 22.057 41.3615 19.5734C41.3615 16.691 42.5211 15.2574 45.3641 14.7445C46.9927 14.4507 48.6345 14.477 50.2456 14.9067C52.3236 15.4634 53.4591 16.9562 53.4591 19.1087C53.4613 24.2555 53.4372 29.4023 53.4723 34.5469C53.4854 36.5197 52.5933 37.8502 50.809 38.5429C48.4614 39.4548 46.0589 39.4197 43.7157 38.5363C42.144 37.9445 41.3703 36.6973 41.3637 35.0116C41.3549 32.3483 41.3615 29.6873 41.3615 27.024ZM48.2553 26.8771C48.2553 26.4059 48.2553 25.9346 48.2553 25.4655C48.2553 23.2253 48.2575 20.9829 48.2553 18.7427C48.2553 18.1727 48.0515 17.9535 47.5298 17.9119C46.8415 17.8571 46.5521 18.1311 46.5521 18.8391C46.5521 22.4274 46.5521 26.0157 46.5521 29.604C46.5521 31.3904 46.5499 33.1769 46.5521 34.9634C46.5521 35.5114 46.7691 35.7306 47.3084 35.7591C48.0098 35.7964 48.2553 35.5706 48.2553 34.8669C48.2553 32.2037 48.2553 29.5404 48.2553 26.8771Z" fill="white"/>
<path d="M132.971 26.9714C132.971 24.5208 132.971 22.0679 132.971 19.6173C132.971 16.7173 134.094 15.2969 136.948 14.7554C138.671 14.4288 140.411 14.4464 142.105 14.9856C144.056 15.6059 145.08 17.011 145.082 19.0627C145.091 24.3388 145.089 29.6149 145.082 34.8911C145.08 36.7258 143.973 38.1133 141.932 38.738C139.826 39.3825 137.695 39.3386 135.604 38.6503C133.942 38.1023 133.015 36.8529 132.991 35.1037C132.954 32.3922 132.98 29.6807 132.98 26.9714C132.976 26.9714 132.974 26.9714 132.969 26.9714H132.971ZM138.158 26.8772C138.158 29.5382 138.158 32.1971 138.158 34.8582C138.158 35.5377 138.397 35.7701 139.067 35.7591C139.688 35.7503 139.896 35.5202 139.896 34.8319C139.896 29.5119 139.896 24.1898 139.896 18.8698C139.896 18.7887 139.896 18.7076 139.896 18.6265C139.883 18.2276 139.668 18.0018 139.284 17.9273C138.554 17.787 138.16 18.107 138.16 18.8479C138.16 21.5243 138.16 24.2007 138.16 26.8772H138.158Z" fill="white"/>
<path d="M110.942 38.9178H105.661C105.361 36.7718 105.065 34.6368 104.763 32.4777H102.439C102.314 33.3545 102.185 34.2466 102.06 35.1366C101.896 36.294 101.742 37.4513 101.562 38.6043C101.543 38.7293 101.372 38.9243 101.269 38.9265C99.6291 38.9463 97.9894 38.9419 96.2424 38.9419C97.5686 30.8688 98.8882 22.8483 100.21 14.8102H106.968C108.29 22.8329 109.614 30.86 110.94 38.9178H110.942ZM104.333 29.0735C104.092 26.8202 103.857 24.6238 103.623 22.4274C103.597 22.4274 103.57 22.4318 103.544 22.434C103.325 24.6369 103.106 26.8399 102.882 29.0757H104.331L104.333 29.0735Z" fill="white"/>
<path d="M162.761 29.2883H167.583C167.592 29.4812 167.605 29.6522 167.605 29.8232C167.605 31.4146 167.605 33.0059 167.605 34.5973C167.605 35.3338 167.888 35.6232 168.585 35.6276C169.262 35.632 169.554 35.3207 169.556 34.5864C169.556 34.0186 169.503 33.4443 169.567 32.8832C169.742 31.3093 169.021 30.1323 167.982 29.0713C166.643 27.7013 165.299 26.3335 163.977 24.9482C163.107 24.0363 162.708 22.9359 162.752 21.6668C162.78 20.8229 162.752 19.9789 162.758 19.1328C162.772 17.0461 163.808 15.5972 165.799 14.9922C167.64 14.4332 169.519 14.3938 171.382 14.865C173.355 15.3648 174.337 16.5638 174.418 18.5783C174.477 20.0053 174.429 21.4366 174.426 22.8658C174.426 22.9096 174.4 22.9557 174.378 23.028H169.571C169.571 22.3331 169.571 21.6558 169.571 20.9785C169.571 20.2157 169.565 19.4507 169.573 18.6879C169.578 18.3086 169.492 17.993 169.076 17.9141C168.653 17.833 168.23 17.879 168.041 18.3328C167.927 18.609 167.892 18.9268 167.868 19.2293C167.704 21.3029 168.547 22.9031 170.073 24.2774C171.312 25.3954 172.425 26.6536 173.567 27.8767C174.394 28.7601 174.858 29.8232 174.865 31.0463C174.871 32.4097 174.911 33.7775 174.821 35.1344C174.698 36.9822 173.519 38.2974 171.572 38.8082C169.619 39.3211 167.647 39.3211 165.698 38.7643C163.784 38.2185 162.765 36.8332 162.761 34.8428C162.756 33.0081 162.761 31.1756 162.761 29.2861V29.2883Z" fill="white"/>
<path d="M60.7102 30.1366V38.9134H55.5502V14.8475C55.5941 14.8299 55.6357 14.7993 55.6796 14.7993C58.1631 14.8256 60.6488 14.8278 63.1323 14.9023C63.8513 14.9242 64.5812 15.1039 65.2761 15.3122C66.7645 15.7615 67.5097 16.7479 67.6259 18.3043C67.6544 18.6922 67.6698 19.0824 67.6719 19.4704C67.6763 21.5813 67.6807 23.69 67.6719 25.8009C67.661 28.4159 66.5913 29.6171 63.9982 29.8955C62.9351 30.0095 61.8632 30.0533 60.7146 30.1344L60.7102 30.1366ZM60.7365 26.5396C61.8895 26.6667 62.466 26.1691 62.4682 25.0709C62.4682 23.2888 62.4704 21.5046 62.4682 19.7225C62.4682 18.6725 61.8018 18.142 60.7387 18.3503V26.5396H60.7365Z" fill="white"/>
<path d="M174.821 11.2416V12.7234H41.2015V11.2416H174.819H174.821Z" fill="#F4F4F4"/>
<path d="M79.3903 27.3681H74.9209V35.8117H79.9318V38.9199H69.6031V14.8234H79.8879V17.8922H74.9252V24.4002H79.3903V27.3703V27.3681Z" fill="white"/>
<path d="M123.805 14.8102V17.9426H120.852V38.9112H115.536V17.9623H112.584V14.8102H123.805Z" fill="white"/>
<path d="M130.983 38.9178H125.725V14.8322H130.983V38.9178Z" fill="white"/>
<path d="M158.252 44.2026V40.8664H161.222V48.7159C160.036 48.7159 158.857 48.7247 157.675 48.7028C157.566 48.7028 157.434 48.5164 157.36 48.3915C156.733 47.3306 156.117 46.2609 155.494 45.1978C155.409 45.0509 155.31 44.9106 155.148 44.6563V48.6852H152.138V40.8291H152.794C153.784 40.8291 154.777 40.8467 155.768 40.8204C156.114 40.8116 156.288 40.9409 156.445 41.2281C157 42.2364 157.583 43.2294 158.155 44.2267C158.188 44.2201 158.219 44.2114 158.252 44.2048V44.2026Z" fill="white"/>
<path d="M170.549 43.6063H167.28C167.28 43.1767 167.263 42.7602 167.285 42.3438C167.307 41.9689 167.125 41.8593 166.789 41.8659C166.483 41.8725 166.261 41.9119 166.266 42.3153C166.281 43.9549 166.281 45.5923 166.266 47.2319C166.261 47.6374 166.487 47.6725 166.789 47.6813C167.127 47.6922 167.3 47.5804 167.285 47.2056C167.263 46.6751 167.278 46.1425 167.278 45.5901H170.544C170.544 46.2806 170.597 46.9645 170.516 47.6308C170.487 47.8654 170.176 48.1723 169.928 48.2578C169.273 48.4791 168.591 48.6677 167.905 48.74C166.561 48.8847 165.211 48.8562 163.894 48.5054C162.905 48.2424 162.66 47.8961 162.66 46.8856C162.66 45.4586 162.66 44.0294 162.66 42.6024C162.66 41.8243 162.879 41.4582 163.611 41.2017C164.08 41.0373 164.58 40.919 165.075 40.8685C166.45 40.7283 167.831 40.6778 169.192 40.9957C170.321 41.2587 170.549 41.559 170.549 42.6967C170.549 42.986 170.549 43.2732 170.549 43.6042V43.6063Z" fill="white"/>
<path d="M150.735 40.8576V48.6918H147.187V40.8576H150.735Z" fill="white"/>
<path d="M24.1873 43.2228C24.6959 43.0496 24.9523 43.2097 25.086 43.7116C25.2811 44.4394 25.5442 45.1496 25.8752 45.8576V43.1987H26.616V48.8979C26.1733 49.0425 25.9168 48.9395 25.7809 48.4397C25.5507 47.5849 25.2526 46.7475 24.9041 45.9146V48.9176H24.1895V43.2228H24.1873Z" fill="white"/>
<path d="M56.2583 48.9154H55.5306V46.2916H54.5551V48.9132H53.8033V43.1943H54.5223V45.4718H55.5196V43.1943H56.2583V48.9176V48.9154Z" fill="white"/>
<path d="M86.0365 44.6542C86.0365 46.2763 86.065 47.8173 86.0234 49.3561C86.0058 50.0465 85.6924 50.6362 85.0172 51C84.7717 50.6603 84.649 50.3863 85.0129 50.0049C85.2189 49.7879 85.2474 49.4021 85.3658 49.0645C84.4144 49.0207 84.0988 48.7927 84.0199 47.9291C83.9519 47.1772 83.9541 46.4056 84.0506 45.6582C84.1558 44.8537 84.4999 44.6586 85.3066 44.6981C85.5258 44.709 85.7494 44.6718 86.0365 44.652V44.6542ZM85.2956 46.8835C85.2956 46.8835 85.2956 46.8835 85.2934 46.8835C85.2934 46.5108 85.3088 46.1382 85.2847 45.7656C85.2781 45.6647 85.1685 45.5113 85.0808 45.4916C85.0041 45.474 84.8309 45.5924 84.8046 45.6801C84.581 46.4736 84.581 47.2759 84.809 48.0694C84.8353 48.1592 84.9931 48.214 85.0896 48.2842C85.1597 48.1724 85.2803 48.065 85.2869 47.951C85.3132 47.5959 85.2956 47.2386 85.2956 46.8835Z" fill="white"/>
<path d="M90.5257 44.7309C90.6178 44.1018 90.2802 43.328 91.2754 43.1746V48.8957C90.8852 48.9461 90.4797 49.0732 90.1027 49.0184C89.8528 48.9811 89.5152 48.7291 89.4341 48.4967C89.0505 47.4117 89.0505 46.296 89.4231 45.2043C89.5897 44.7177 89.9733 44.5424 90.5279 44.7331L90.5257 44.7309ZM90.5432 46.8374C90.5432 46.8374 90.5454 46.8374 90.5476 46.8374C90.5476 46.4976 90.5696 46.1535 90.5367 45.8159C90.5235 45.691 90.3789 45.5792 90.2934 45.4608C90.1969 45.5573 90.0216 45.6493 90.0194 45.7502C89.9974 46.4757 89.9974 47.2034 90.0194 47.929C90.0238 48.0298 90.1925 48.1241 90.2868 48.2227C90.3723 48.1022 90.5169 47.9882 90.5301 47.8588C90.5652 47.5213 90.5411 47.1793 90.5411 46.8396L90.5432 46.8374Z" fill="white"/>
<path d="M45.1339 48.9221H44.3864C44.3864 48.4486 44.3864 47.9992 44.3864 47.5499C44.3864 46.3837 44.4171 45.2154 44.3733 44.0493C44.3514 43.5057 44.5377 43.2317 45.1208 43.1396V44.7266C46.0282 44.5337 46.4294 44.8603 46.4338 45.7349C46.4381 46.7849 46.4338 47.8326 46.4338 48.9133H45.6688C45.6688 48.0168 45.6688 47.1312 45.6688 46.2456C45.6688 46.1163 45.7038 45.9716 45.6578 45.8598C45.6074 45.7305 45.4846 45.6297 45.3948 45.5179C45.3093 45.6341 45.1514 45.7481 45.1471 45.8686C45.1208 46.5328 45.1339 47.197 45.1317 47.8611C45.1317 48.1987 45.1317 48.5363 45.1317 48.9177L45.1339 48.9221Z" fill="white"/>
<path d="M113.294 43.1702C113.691 43.1702 114.063 43.1461 114.432 43.1746C115.295 43.2403 115.793 43.8738 115.764 44.8339C115.738 45.7216 115.218 46.2412 114.329 46.2696C114.25 46.2718 114.171 46.2784 114.026 46.2872V48.9198H113.296V43.1724L113.294 43.1702ZM114.162 43.8563C114.122 43.9089 114.081 43.9615 114.041 44.0141V45.612C114.377 45.4433 114.738 45.3797 114.841 45.1802C114.969 44.9325 114.975 44.5314 114.857 44.2815C114.76 44.0777 114.403 43.9944 114.162 43.8563Z" fill="white"/>
<path d="M100.598 48.9198H99.868V44.709C100.309 44.6871 100.767 44.6082 101.214 44.6542C101.659 44.7002 101.878 45.0772 101.887 45.4915C101.913 46.6204 101.896 47.7515 101.896 48.9154H101.168C101.168 48.0408 101.168 47.1859 101.168 46.3311C101.168 46.2171 101.203 46.0878 101.159 45.9935C101.082 45.8269 100.96 45.68 100.854 45.5244C100.769 45.6757 100.611 45.8269 100.609 45.9803C100.587 46.9492 100.598 47.9181 100.598 48.9176V48.9198Z" fill="white"/>
<path d="M66.9355 48.9176H66.2056C66.2056 48.0342 66.2056 47.1771 66.2056 46.3201C66.2056 46.1907 66.2428 46.0439 66.1946 45.9343C66.1267 45.783 65.9973 45.6603 65.8921 45.5266C65.8132 45.6647 65.6685 45.8006 65.6641 45.9408C65.6444 46.9141 65.6532 47.8873 65.6532 48.9044H64.9123V44.7046C65.3638 44.6826 65.8154 44.6125 66.256 44.652C66.6834 44.6914 66.9136 45.0465 66.9245 45.4389C66.9552 46.5875 66.9355 47.7383 66.9355 48.9176Z" fill="white"/>
<path d="M79.4101 48.9198H78.6714V44.7002C79.1164 44.6805 79.5679 44.6082 80.0063 44.652C80.4557 44.6958 80.6771 45.0663 80.688 45.4828C80.7143 46.616 80.6968 47.7515 80.6968 48.9176H79.9625C79.9625 48.0562 79.9625 47.2166 79.9625 46.3771C79.9625 46.2478 79.9997 46.1031 79.9537 45.9913C79.8836 45.8247 79.7586 45.68 79.6556 45.5266C79.5745 45.68 79.4254 45.8313 79.4232 45.9847C79.4013 46.9404 79.4123 47.8983 79.4123 48.9198H79.4101Z" fill="white"/>
<path d="M61.6243 48.8869C61.2012 48.9417 60.7957 49.0119 60.3858 49.0382C59.9935 49.0645 59.634 48.7181 59.623 48.2469C59.5967 47.0983 59.6142 45.9475 59.6142 44.7616H60.3529C60.3529 45.6537 60.3398 46.5415 60.3617 47.4292C60.3683 47.6857 60.2017 48.1307 60.6357 48.1241C61.061 48.1175 60.8944 47.6726 60.8988 47.4139C60.9185 46.5415 60.9053 45.6669 60.9053 44.7594H61.6243V48.8847V48.8869Z" fill="white"/>
<path d="M121.115 48.8957C119.515 49.1347 119.09 48.9418 119.026 47.9773C118.934 46.5876 119.285 46.0681 120.411 46.0812C120.352 45.8774 120.328 45.5595 120.245 45.542C120.008 45.4938 119.745 45.5705 119.493 45.5968C119.484 45.6384 119.473 45.6823 119.464 45.7239C119.333 45.5639 119.201 45.4017 119.068 45.2395C119.407 44.7244 119.879 44.5227 120.413 44.6739C120.88 44.8055 121.115 45.1299 121.128 45.7568C121.146 46.7125 121.135 47.6682 121.132 48.6261C121.132 48.705 121.122 48.7839 121.115 48.8935V48.8957ZM120.497 47.609C120.46 47.5871 120.422 47.5652 120.385 47.5433C120.385 47.4468 120.413 47.3394 120.378 47.2561C120.326 47.129 120.232 47.0216 120.155 46.9054C120.036 46.9865 119.894 47.0501 119.806 47.1575C119.743 47.2342 119.734 47.3723 119.736 47.4819C119.741 47.7932 119.657 48.2009 120.078 48.2579C120.186 48.2732 120.354 47.8392 120.495 47.6112L120.497 47.609Z" fill="white"/>
<path d="M29.9018 46.8637C29.9588 46.377 29.9851 45.9233 30.0728 45.4827C30.1889 44.8996 30.5243 44.6278 31.0307 44.63C31.4932 44.6322 31.7738 44.8733 31.9184 45.4345C32.1508 46.3442 32.1464 47.2626 31.9623 48.1767C31.8439 48.7641 31.5392 49.0315 31.0723 49.0469C30.5769 49.0622 30.2174 48.7992 30.0837 48.2249C29.9785 47.7711 29.9588 47.2999 29.904 46.8637H29.9018ZM31.3967 46.8746C31.3617 46.434 31.3551 46.0943 31.2981 45.7611C31.2784 45.6471 31.1359 45.555 31.0482 45.4542C30.943 45.555 30.7545 45.6537 30.7501 45.7589C30.7194 46.4647 30.715 47.1727 30.7413 47.8785C30.7457 47.9991 30.943 48.1131 31.0504 48.2315C31.1425 48.1153 31.2937 48.0079 31.3134 47.8807C31.3704 47.5169 31.377 47.1442 31.3945 46.8746H31.3967Z" fill="white"/>
<path d="M96.751 46.8396C96.6764 47.3919 96.6457 47.8479 96.5471 48.2863C96.4529 48.7071 96.1986 49.014 95.7185 49.0447C95.2297 49.0754 94.8965 48.8408 94.7584 48.3915C94.4275 47.3262 94.4559 46.2521 94.7869 45.1934C94.9119 44.7966 95.2473 44.6256 95.6615 44.63C96.0671 44.6344 96.3674 44.8448 96.4616 45.2197C96.6019 45.7786 96.6699 46.3573 96.7532 46.8396H96.751ZM95.2582 46.8461C95.2845 47.2122 95.2823 47.5388 95.3459 47.8523C95.3744 47.9947 95.5366 48.1087 95.6374 48.238C95.7383 48.1153 95.9202 47.9925 95.9246 47.8676C95.9443 47.1618 95.9333 46.456 95.9027 45.7501C95.8983 45.6493 95.7361 45.5572 95.6462 45.4608C95.5476 45.5529 95.3832 45.6318 95.3656 45.737C95.3021 46.1162 95.2867 46.5042 95.2582 46.8483V46.8461Z" fill="white"/>
<path d="M39.6364 44.6454C40.1713 44.6893 40.0573 44.3342 40.0573 44.058C40.0617 43.3543 40.0748 43.3368 40.831 43.1658V44.5841C41.0152 44.6147 41.1511 44.6389 41.3023 44.663V45.3907C40.9034 45.3907 40.8091 45.6077 40.831 45.9782C40.8639 46.5941 40.8398 47.2101 40.8398 47.8282C40.8398 48.1066 40.8354 48.3872 41.3221 48.1965C41.173 48.5472 41.3593 48.9878 40.8442 49.0404C40.4321 49.082 40.1099 48.7861 40.0836 48.271C40.0441 47.4928 40.0507 46.7125 40.066 45.9343C40.0726 45.6121 40.0134 45.3973 39.6364 45.4039V44.6454Z" fill="white"/>
<path d="M69.9758 45.406V44.6849C70.1139 44.6454 70.2454 44.6082 70.3616 44.5753C70.4011 44.1807 70.3792 43.7927 70.4997 43.4596C70.5589 43.2973 70.8921 43.2338 71.1748 43.0869V44.584C71.3568 44.6147 71.4927 44.6366 71.6461 44.663V45.3907C71.2538 45.3951 71.1529 45.6055 71.1748 45.9781C71.2099 46.5919 71.1858 47.21 71.1836 47.826C71.1836 48.1131 71.2011 48.3762 71.6702 48.2052C71.5299 48.5559 71.7075 48.9943 71.1924 49.0426C70.7759 49.082 70.4734 48.8036 70.4427 48.271C70.3967 47.495 70.3989 46.7168 70.4098 45.9409C70.4142 45.6209 70.3638 45.4017 69.9758 45.4082V45.406Z" fill="white"/>
<path d="M35.3401 48.9176V44.6411C35.7741 44.6411 36.2015 44.6148 36.6202 44.6586C36.732 44.6718 36.8723 44.8931 36.9074 45.04C36.9446 45.2022 36.8723 45.3885 36.8482 45.5639C36.2235 45.4455 36.0985 45.542 36.0941 46.1689C36.0876 47.0742 36.0941 47.9795 36.0941 48.9154H35.3423L35.3401 48.9176Z" fill="white"/>
<path d="M171.941 47.5718H174.858V48.7007H171.941V47.5718Z" fill="white"/>
<path d="M75.3966 48.922H74.7236V44.7594H75.3966V48.922Z" fill="white"/>
<path d="M105.256 49.5906C105.387 49.3998 105.468 49.2837 105.572 49.1346C105.458 49.0667 105.308 49.0294 105.267 48.9417C105.192 48.7839 105.118 48.5713 105.17 48.4288C105.212 48.317 105.464 48.1964 105.587 48.2249C105.732 48.26 105.911 48.4354 105.946 48.5822C106.049 49.0141 105.775 49.4174 105.256 49.5884V49.5906Z" fill="white"/>
<path d="M75.6223 43.7993C75.3483 43.9659 75.1795 44.1457 75.0699 44.115C74.923 44.0733 74.8222 43.8673 74.7017 43.7336C74.8332 43.624 74.9603 43.4376 75.0984 43.4289C75.2255 43.4223 75.3636 43.6064 75.6223 43.7993Z" fill="white"/>
<path d="M145.089 40.816V42.2978H0.338379V40.816H145.087H145.089Z" fill="white"/>
</svg>
