<?xml version="1.0" encoding="UTF-8"?>
<svg id="Layer_2" data-name="Layer 2" xmlns="http://www.w3.org/2000/svg" viewBox="0 0 366 52.78">
  <defs>
    <style>
      .cls-1 {
        fill: #782328;
      }

      .cls-1, .cls-2, .cls-3 {
        stroke-width: 0px;
      }

      .cls-2 {
        fill: #263f6a;
      }

      .cls-3 {
        fill: #ab262f;
      }
    </style>
  </defs>
  <g id="Layer_1-2" data-name="Layer 1">
    <g>
      <g>
        <path class="cls-2" d="M8.85,35.37L0,16.29h5.47l5.9,13.61,5.76-13.61h5.3l-8.65,19.08h-4.93Z"/>
        <path class="cls-2" d="M43,19.73h-13.41v4.24h12.92v3.47h-12.92v4.47h13.92v3.47h-18.94v-19.08h18.42v3.44Z"/>
        <path class="cls-2" d="M63.75,22.45c-.6-.97-.89-1.32-1.58-1.86-1.12-.83-2.81-1.35-4.53-1.35-4.24,0-7.11,2.64-7.11,6.53s2.86,6.65,7.19,6.65c3.12,0,5.13-1.15,6.39-3.58h5.13c-.8,2.32-1.38,3.18-3.07,4.58-2.18,1.78-4.84,2.55-8.57,2.55-7.59,0-12.2-3.84-12.2-10.26s4.64-10.06,12.15-10.06c5.67,0,9.51,2.03,11.57,6.16l-5.39.63Z"/>
        <path class="cls-2" d="M89.29,19.96h-7.22v15.41h-5.01v-15.41h-7.25v-3.67h19.48v3.67Z"/>
        <path class="cls-2" d="M102.04,35.97c-7.36,0-12.2-3.98-12.2-10.14s4.84-10.17,12.2-10.17,12.2,4.04,12.2,10.17-4.84,10.14-12.2,10.14ZM102.04,19.24c-4.33,0-7.08,2.55-7.08,6.59s2.75,6.59,7.08,6.59,7.08-2.55,7.08-6.59-2.75-6.59-7.08-6.59Z"/>
        <path class="cls-2" d="M121.86,35.37h-5.01v-19.08h13.32c2.29,0,3.44.17,4.58.72.6.29,1.18.72,1.63,1.26.86,1,1.29,2.24,1.29,3.75,0,3.09-1.69,4.9-5.19,5.44l5.76,7.91h-5.73l-5.07-7.56h-5.59v7.56ZM129.34,24.34c2.41,0,3.44-.72,3.44-2.35,0-1.49-.95-2.23-2.89-2.23h-8.02v4.58h7.48Z"/>
      </g>
      <g>
        <path class="cls-2" d="M210.93,20.73c-1.26-1.29-2.09-1.83-3.47-2.26-1.09-.34-2.41-.52-3.84-.52-4.01,0-6.1,1.09-6.1,3.18,0,1.75.95,2.29,4.44,2.64l4.93.46c2.15.2,3.58.6,4.7,1.29,1.41.89,2.24,2.46,2.24,4.24,0,3.95-3.5,6.22-9.54,6.22-5.13,0-8.82-1.46-10.89-4.41l2.46-1.29c1.78,2.32,4.58,3.44,8.54,3.44,4.24,0,6.65-1.38,6.65-3.84,0-1.89-1.4-2.87-4.5-3.18l-5.16-.52c-2.43-.23-3.75-.57-4.81-1.23-1.18-.72-1.83-1.98-1.83-3.55,0-3.67,3.27-5.73,9.14-5.73,4.38,0,7.36,1.17,9.51,3.75l-2.46,1.32Z"/>
        <path class="cls-2" d="M235.63,18.58h-15.01v5.76h13.87v2.29h-13.87v6.45h16.07v2.29h-18.85v-19.08h17.79v2.29Z"/>
        <path class="cls-2" d="M258.69,22.05c-1.43-2.72-3.98-4.1-7.56-4.1-5.33,0-8.68,3.07-8.68,7.88s3.35,7.88,8.71,7.88c2.32,0,4.47-.63,5.96-1.75,1.03-.75,1.4-1.2,2.09-2.49l2.86.69c-1.23,2.12-1.89,2.87-3.49,3.92-1.95,1.26-4.44,1.89-7.3,1.89-6.99,0-11.69-4.04-11.69-10.14s4.7-10.17,11.66-10.17c2.78,0,5.16.66,7.02,1.92,1.52,1.06,2.18,1.8,3.35,3.9l-2.92.57Z"/>
        <path class="cls-2" d="M285.16,16.29v11.75c0,2.95-.69,4.61-2.44,5.87-1.92,1.38-4.53,2.06-7.48,2.06-4.38,0-8.02-1.6-9.25-4.13-.49-1-.69-2.12-.69-3.81v-11.75h2.78v11.4c0,2.92.4,3.87,2.09,4.81,1.37.77,3.18,1.2,5.07,1.2,3.07,0,5.73-1.09,6.65-2.75.43-.8.52-1.23.52-3.27v-11.4h2.75Z"/>
        <path class="cls-2" d="M292.7,35.37h-2.75v-19.08h13.06c2.78,0,4.33.46,5.59,1.63,1.06,1,1.63,2.35,1.63,3.92,0,2.09-.95,3.75-2.61,4.64-.83.46-1.29.6-2.55.83l6.9,8.05h-3.61l-6.5-7.62h-9.17v7.62ZM302.32,25.46c3.5,0,5.04-1.06,5.04-3.47s-1.35-3.41-4.04-3.41h-10.63v6.88h9.63Z"/>
        <path class="cls-2" d="M318.31,35.37h-2.75v-19.08h2.75v19.08Z"/>
        <path class="cls-2" d="M339.51,18.58h-7.82v16.79h-2.75v-16.79h-7.82v-2.29h18.39v2.29Z"/>
        <path class="cls-2" d="M353.27,35.37h-2.75v-7.31l-9.83-11.78h3.55l7.65,9.43,7.59-9.43h3.55l-9.77,11.78v7.31Z"/>
      </g>
      <path class="cls-2" d="M365.16,34.53c-.56.56-1.23.84-2.02.84s-1.46-.28-2.02-.84c-.55-.56-.83-1.23-.83-2.03s.28-1.46.84-2.01c.55-.55,1.22-.83,2.01-.83s1.47.28,2.02.83c.56.56.84,1.23.84,2.01s-.28,1.47-.84,2.03ZM361.41,30.77c-.48.48-.72,1.06-.72,1.74s.24,1.27.71,1.75c.48.48,1.05.72,1.74.72s1.26-.24,1.74-.72c.48-.48.72-1.07.72-1.75s-.24-1.26-.72-1.74c-.48-.48-1.06-.72-1.74-.72s-1.26.24-1.73.72ZM363.09,30.93c.39,0,.67.04.85.11.32.14.49.4.49.79,0,.28-.1.49-.31.62-.11.07-.26.12-.45.15.24.04.42.14.54.31.11.17.17.33.17.49v.23c0,.07,0,.15,0,.23,0,.08.02.14.03.16l.02.04h-.52s0-.02,0-.03c0-.01,0-.02,0-.03v-.1s-.01-.25-.01-.25c0-.36-.1-.6-.29-.72-.12-.07-.32-.1-.61-.1h-.44v1.23h-.55v-3.13h1.1ZM363.68,31.42c-.14-.08-.36-.12-.67-.12h-.47v1.14h.5c.23,0,.41-.02.53-.07.22-.09.32-.25.32-.49,0-.23-.07-.38-.21-.46Z"/>
      <g>
        <polygon class="cls-1" points="174.63 0 176.33 0 176.33 4.01 176.3 3.97 163.56 26.39 159.55 26.39 174.63 0"/>
        <polygon class="cls-3" points="176.56 0 174.63 0 173.64 1.77 187.64 26.39 191.64 26.39 176.56 0"/>
        <polygon class="cls-3" points="174.63 52.78 176.33 52.78 176.33 48.78 176.3 48.81 163.56 26.39 159.55 26.39 174.63 52.78"/>
        <polygon class="cls-1" points="176.56 52.78 174.63 52.78 173.63 51 187.64 26.39 191.64 26.39 176.56 52.78"/>
      </g>
      <g>
        <polygon class="cls-1" points="165.29 0 166.98 0 166.98 4.01 166.96 3.97 154.21 26.39 150.2 26.39 165.29 0"/>
        <polygon class="cls-3" points="167.21 0 165.29 0 164.3 1.77 178.29 26.39 182.29 26.39 167.21 0"/>
        <polygon class="cls-3" points="165.29 52.78 166.98 52.78 166.98 48.78 166.96 48.81 154.21 26.39 150.2 26.39 165.29 52.78"/>
        <polygon class="cls-1" points="167.21 52.78 165.29 52.78 164.28 51 178.29 26.39 182.29 26.39 167.21 52.78"/>
      </g>
      <g>
        <polygon class="cls-1" points="155.94 0 157.63 0 157.63 4.01 157.61 3.97 144.86 26.39 140.86 26.39 155.94 0"/>
        <polygon class="cls-3" points="157.86 0 155.94 0 154.95 1.77 168.94 26.39 172.95 26.39 157.86 0"/>
        <polygon class="cls-3" points="155.94 52.78 157.63 52.78 157.63 48.78 157.61 48.81 144.86 26.39 140.86 26.39 155.94 52.78"/>
        <polygon class="cls-1" points="157.86 52.78 155.94 52.78 154.93 51 168.94 26.39 172.95 26.39 157.86 52.78"/>
      </g>
    </g>
  </g>
</svg>