<?xml version="1.0" encoding="UTF-8"?>
<svg id="Layer_2" data-name="Layer 2" xmlns="http://www.w3.org/2000/svg" viewBox="0 0 358.6 124.54">
  <defs>
    <style>
      .cls-1 {
        fill: #fff;
      }
    </style>
  </defs>
  <g id="Layer_1-2" data-name="Layer 1">
    <g>
      <path class="cls-1" d="m17.6,28.42c.58,0,.88.33.88.99,0,.23-.1.45-.29.64-3.27,3.27-7.06,4.91-11.34,4.91-1.01,0-2.14-.58-3.39-1.72-1.25-1.15-1.87-2.82-1.87-5s1.32-4.61,3.98-7.28c2.65-2.67,6.34-5.2,11.08-7.6,4.74-2.4,10.65-4.53,17.75-6.4s13.47-2.81,19.12-2.81,10.29.46,13.92,1.37c3.62.92,6.46,2.05,8.51,3.39,2.05,1.34,3.73,2.86,5.06,4.53,2.22,2.81,3.33,5.66,3.33,8.57s-.94,5.9-2.81,8.97c-1.87,3.08-4.3,5.82-7.28,8.22s-6.4,4.63-10.26,6.69c-7.21,3.82-14.93,6.63-23.15,8.42,1.4,1.44,4.38,5.06,8.92,10.85,4.54,5.79,8.69,10.63,12.45,14.53,3.76,3.9,6.67,5.85,8.74,5.85l1.93-.7c.43,0,.64.17.64.5s-.71,1.29-2.13,2.87c-1.42,1.58-2.66,2.78-3.71,3.6s-2.49,1.23-4.3,1.23-3.87-.88-6.17-2.63c-2.3-1.75-4.82-4.23-7.54-7.43-2.73-3.2-5.18-6.21-7.37-9.03-2.18-2.83-4.68-6.16-7.48-10-2.81-3.84-4.74-6.44-5.79-7.81-.39.62-1.38,2.17-2.98,4.65-1.6,2.48-2.77,4.3-3.51,5.47-.74,1.17-1.81,2.88-3.22,5.12-1.4,2.24-2.5,4.04-3.27,5.41-2.14,3.62-3.64,6.33-4.47,8.13-.84,1.79-2.21,2.69-4.12,2.69l-2.05-.06-1.75.06c-2.42,0-3.63-1.01-3.63-3.04,0-1.52.65-3.69,1.96-6.52,1.31-2.83,8.23-13.37,20.79-31.63,12.55-18.26,19.47-28.01,20.76-29.24s2.24-1.92,2.87-2.08c.47-.35.78-.53.94-.53l1.05.17.99-.17c.35,0,.66.15.94.44.27.29.47.48.58.56,1.64,1.21,2.46,2.22,2.46,3.04s-.21,1.61-.61,2.37-1.53,2.47-3.36,5.12c-1.83,2.65-4.24,6.09-7.22,10.32-2.98,4.23-5.14,7.3-6.46,9.21,3.2-.16,7.04-1.13,11.52-2.92,4.48-1.79,8.68-3.95,12.6-6.46,3.92-2.51,7.27-5.24,10.06-8.19s4.18-5.51,4.18-7.69c0-1.17-.6-2.23-1.81-3.19-1.21-.96-2.73-1.71-4.56-2.25-3.66-1.09-7.8-1.64-12.4-1.64s-10.43.99-17.48,2.98c-7.06,1.99-12.2,3.89-15.44,5.7s-5.57,3.35-7.02,4.62-2.16,2.15-2.16,2.66c0,.27.4.41,1.2.41s1.51-.2,2.13-.61c.62-.41.99-.61,1.11-.61Z"/>
      <path class="cls-1" d="m116.18,44.03c2.96,0,4.44,1.01,4.44,3.04,0,1.09-.25,1.89-.76,2.4-.51.51-1.59,2.19-3.25,5.06s-3.49,6.53-5.5,10.99c-2.01,4.46-3.3,8.27-3.89,11.43-.12.39-.18.94-.18,1.64,0,2.14.58,3.22,1.75,3.22s2.55-.55,4.15-1.67,3.02-2.3,4.27-3.57c1.25-1.27,2.46-2.56,3.65-3.89,1.19-1.33,1.9-2.08,2.13-2.28.23-.19.58-.29,1.05-.29.74,0,1.19.57,1.35,1.7.16,1.13.23,2.3.23,3.51s-.12,2.05-.35,2.51c-1.13,2.22-3.62,4.89-7.46,8.01-3.84,3.12-7.33,4.68-10.47,4.68s-5.45-.96-6.93-2.87c-1.48-1.91-2.22-4.02-2.22-6.34s.39-4.36,1.17-6.11c-3.24,4.21-6.95,7.78-11.14,10.7-4.19,2.92-7.61,4.38-10.26,4.38s-4.81-.8-6.49-2.4c-2.14-1.99-3.22-4.75-3.22-8.27s.79-7.08,2.37-10.64c1.58-3.57,3.65-6.82,6.23-9.76,2.57-2.94,5.4-5.62,8.48-8.04,6.47-5.07,12.43-7.6,17.89-7.6,2.11,0,3.82.35,5.15,1.05,1.33.7,2.16,1.58,2.51,2.63.94-1.4,1.72-2.29,2.37-2.66.64-.37,1.61-.56,2.89-.56Zm-7.78,6.49c-6.67,0-13.57,3.7-20.7,11.11-2.54,2.65-4.86,5.83-6.99,9.53-2.12,3.7-3.19,6.24-3.19,7.6s.39,2.05,1.17,2.05c1.09,0,4.13-2.15,9.12-6.46,4.99-4.31,8.3-7.47,9.94-9.5,1.79-2.26,5.34-7.04,10.64-14.33Z"/>
      <path class="cls-1" d="m148.93,75.31c0,1.17-.12,2.01-.35,2.51-1.91,3.9-4.95,7.05-9.12,9.44-4.17,2.4-7.8,3.6-10.88,3.6s-5.73-1.03-7.95-3.1c-2.22-2.07-3.33-4.17-3.33-6.32s1.07-5.26,3.22-9.36c2.14-4.09,4.29-7.87,6.43-11.34,2.14-3.47,3.22-5.35,3.22-5.64s-.4-.87-1.2-1.73c-.8-.86-1.2-1.49-1.2-1.9s.81-1.48,2.43-3.22c1.62-1.73,3.59-3.45,5.91-5.15,2.32-1.7,4.09-2.54,5.32-2.54s2.33.55,3.3,1.64c.97,1.09,1.46,2.09,1.46,2.98s-4.64,9.34-13.92,25.32c-.12.23-.44.75-.96,1.55-.53.8-.94,1.46-1.23,1.99-.29.53-.63,1.16-1.02,1.9-.78,1.56-1.17,2.87-1.17,3.92,0,1.33.9,1.99,2.69,1.99s3.65-.61,5.58-1.84c1.93-1.23,3.6-2.58,5-4.06,3.66-3.94,5.75-5.91,6.26-5.91,1.01,0,1.52,1.75,1.52,5.26Zm9.47-51.04c0,2.22-1.03,4.45-3.1,6.69-2.07,2.24-4.22,3.36-6.46,3.36s-3.36-1.17-3.36-3.51.98-4.57,2.95-6.7c1.97-2.12,4.14-3.19,6.52-3.19,1.05,0,1.89.29,2.51.88.62.58.94,1.4.94,2.46Z"/>
      <path class="cls-1" d="m198.01,2.37c1.42,1.11,2.13,2.76,2.13,4.94s-1.21,5.6-3.62,10.26c-2.42,4.66-5.32,9.41-8.71,14.27-3.39,4.85-7.23,10.01-11.52,15.46-6.78,8.65-13.29,16.43-19.53,23.33-.04.47-.2,1.34-.5,2.6-.29,1.27-.44,2.54-.44,3.83s.59,2.45,1.78,3.48c1.19,1.03,2.66,1.55,4.42,1.55s3.63-.62,5.64-1.87c2.01-1.25,3.75-2.63,5.23-4.15,3.9-4.01,6.32-6.02,7.25-6.02s1.4,1.42,1.4,4.27v1.17c0,1.52-.27,2.63-.82,3.33-3.27,4.01-6.96,7.01-11.05,8.97-4.09,1.97-7.97,2.95-11.64,2.95s-6.45-1.12-8.36-3.36-2.87-5.31-2.87-9.21c0-7.6,2.04-16.54,6.11-26.81s8.66-19.01,13.77-26.22C178.2,8.85,186.99.7,193.07.7c1.87,0,3.52.56,4.94,1.67Zm-7.57,8.04c0-.58-.2-.88-.58-.88-1.37,0-4.95,3.9-10.76,11.69-5.81,7.8-10.01,14.01-12.6,18.65-2.59,4.64-5.04,10.47-7.34,17.48,4.6-5.46,10.96-13.96,19.09-25.52s12.19-18.7,12.19-21.43Z"/>
      <path class="cls-1" d="m181.9,76.77l-.06.94c0,.97.37,1.81,1.11,2.51.74.7,1.42,1.05,2.05,1.05,4.68,0,8.82-.7,12.42-2.1s5.41-2.81,5.41-4.21c0-.66-.65-1.24-1.96-1.72-1.31-.49-3.51-1.09-6.61-1.81s-5.35-1.29-6.75-1.7-2.51-.79-3.33-1.14c-.82-.35-1.66-.84-2.51-1.46-1.83-1.29-2.75-3.21-2.75-5.76s.94-5.09,2.84-7.6c1.89-2.51,4.26-4.67,7.1-6.46,2.85-1.79,5.91-3.37,9.18-4.74,6.47-2.69,11.91-4.04,16.31-4.04s7,.94,8.01,2.81c.31.66.47,1.4.47,2.22v.41c0,2.07-.44,3.68-1.32,4.85-.88,1.17-2.26,2.22-4.15,3.16s-3.39,1.4-4.5,1.4-1.81-.08-2.11-.23c-.29-.16-.54-.36-.73-.61-.2-.25-.44-.44-.73-.56-.29-.12-.44-.41-.44-.88s.19-.94.58-1.43c.39-.49.66-1,.82-1.55-2.57.12-5.26.71-8.07,1.78s-5.21,2.27-7.22,3.6c-2.01,1.33-3.67,2.59-5,3.8-1.33,1.21-1.99,2.1-1.99,2.66s.9,1.02,2.69,1.37c8.07,1.6,13.37,2.98,15.9,4.15,2.53,1.17,4.29,2.5,5.26,3.98.97,1.48,1.46,2.83,1.46,4.03,0,2.5-.99,4.85-2.98,7.08-1.99,2.22-4.44,4.03-7.37,5.44-6.28,3.08-11.74,4.62-16.4,4.62s-7.87-.71-9.65-2.13c-1.77-1.42-2.66-3.11-2.66-5.06s.5-3.75,1.49-5.41c.99-1.66,2.27-2.48,3.83-2.48s2.34.41,2.34,1.23Z"/>
      <path class="cls-1" d="m270.96,71.22c.27,1.79.41,3.21.41,4.24s-.19,1.93-.56,2.69c-.37.76-1.19,1.83-2.46,3.22-1.27,1.38-2.78,2.78-4.53,4.18-4.29,3.39-8.67,5.09-13.16,5.09-6.43,0-9.65-2.84-9.65-8.54,0-4.95,4.31-14.81,12.92-29.59.31-.54.53-.94.64-1.17-3,2.1-8.74,7.84-17.22,17.22s-14.12,16.01-16.93,19.91c-.23.35-.82.74-1.75,1.17s-1.67.64-2.19.64-1.09-.17-1.7-.5c-.6-.33-.98-.5-1.14-.5-.51,0-.76-.17-.76-.5s.69-2.12,2.08-5.38,3.21-7.3,5.47-12.13c6.2-13.33,15.42-30.68,27.66-52.04,4.29-7.48,7.64-12.79,10.06-15.9,1.71-2.22,4.6-3.33,8.65-3.33.86,0,1.34.25,1.46.76.12.51.17,1.05.17,1.64s-.12,1.17-.35,1.75l-6.26,9.76c-12.4,19.33-21.73,35.36-28.01,48.06,6.08-7.41,11.99-13.12,17.72-17.13,3.55-2.53,6.21-3.8,7.98-3.8s3.38.28,4.82.85c1.44.57,2.16,1.92,2.16,4.06,0,.78-1.27,3.67-3.8,8.65-7.6,14.97-11.4,23.28-11.4,24.94s.68,2.49,2.05,2.49c1.99,0,5.05-1.93,9.18-5.79,3.12-2.92,5.09-4.79,5.91-5.61.47-.35.9-.53,1.29-.53.74,0,1.15.37,1.23,1.11Z"/>
      <path class="cls-1" d="m306.27,43.91c1.17,0,2.37.53,3.6,1.58,1.23,1.05,1.84,2.66,1.84,4.82s-.76,4.97-2.28,8.42c-1.52,3.45-3.61,6.96-6.26,10.52-2.65,3.57-5.57,6.92-8.74,10.06s-6.61,5.71-10.29,7.72c-3.68,2.01-7.03,3.01-10.03,3.01s-5.41-.95-7.22-2.84c-1.81-1.89-2.72-4.52-2.72-7.89s.83-7.1,2.49-11.2c1.66-4.09,3.79-7.71,6.4-10.85,2.61-3.14,5.44-5.95,8.48-8.45,6.35-5.11,11.93-7.66,16.72-7.66,2.14,0,3.76.53,4.85,1.58.39.35.58.66.58.94v.35c.55-.08,1.4-.12,2.57-.12Zm-5.91,7.78h-.41c-1.37,0-2.05-.99-2.05-2.98-2.85.94-5.83,2.57-8.95,4.91-3.12,2.34-5.91,5.11-8.36,8.3-4.99,6.39-7.52,11.79-7.6,16.2,0,2.18.8,3.27,2.4,3.27s3.98-1.05,7.13-3.16c3.16-2.11,6.29-5.11,9.38-9,3.1-3.9,5.42-7.28,6.96-10.14,1.54-2.87,2.31-4.81,2.31-5.85s-.27-1.55-.82-1.55Z"/>
      <path class="cls-1" d="m342.99,26.25l1.05-.12c.58,0,1.05.51,1.4,1.52s.53,1.7.53,2.05-.39,1.01-1.17,1.99l-16.66,25.38c5.85-5.85,11.79-10.12,17.83-12.8,2.34-1.01,4.45-1.52,6.34-1.52s3.41.61,4.56,1.84c1.15,1.23,1.73,2.76,1.73,4.59s-.51,4.09-1.52,6.78-2.39,5.55-4.12,8.59c-1.74,3.04-3.84,6.1-6.32,9.18s-5.07,5.87-7.78,8.36c-2.71,2.5-5.66,4.52-8.86,6.08s-6,2.34-8.42,2.34c-4.87,0-7.31-2.24-7.31-6.72-4.56,6.98-9.82,15.24-15.79,24.79-5.96,9.55-9.16,14.6-9.59,15.14-.43.55-.79.82-1.08.82s-.74-.18-1.34-.53c-.6-.35-1.24-.94-1.9-1.75-.66-.82-1-2.01-1.02-3.57-.02-1.56.44-3.14,1.37-4.74,5.26-8.77,15.41-25.27,30.43-49.5,15.03-24.23,23.16-36.75,24.41-37.57.7-.47,1.4-.7,2.11-.7l1.11.06Zm5.15,26.9c0-.82-.39-1.23-1.17-1.23-2.11,0-6.56,3.24-13.36,9.71s-12.21,12.38-16.23,17.72c1.01,1.25,2.51,1.87,4.5,1.87s4.56-1.07,7.72-3.22c3.16-2.14,6.08-4.69,8.77-7.63s4.99-6.03,6.9-9.27,2.87-5.89,2.87-7.95Z"/>
    </g>
  </g>
</svg>