<?xml version="1.0" encoding="UTF-8"?>
<svg id="Layer_2" data-name="Layer 2" xmlns="http://www.w3.org/2000/svg" viewBox="0 0 318.97 110.78">
  <defs>
    <style>
      .cls-1 {
        fill: #242628;
      }
    </style>
  </defs>
  <g id="Layer_1-2" data-name="Layer 1">
    <g>
      <path class="cls-1" d="m15.65,25.28c.52,0,.78.29.78.88,0,.21-.09.4-.26.57-2.91,2.91-6.28,4.37-10.09,4.37-.9,0-1.91-.51-3.02-1.53-1.11-1.02-1.66-2.5-1.66-4.45s1.18-4.1,3.54-6.48c2.36-2.38,5.64-4.63,9.86-6.76,4.21-2.13,9.47-4.03,15.78-5.69,6.31-1.67,11.98-2.5,17.01-2.5s9.15.41,12.38,1.22c3.22.82,5.75,1.82,7.57,3.02s3.32,2.54,4.5,4.03c1.98,2.5,2.96,5.04,2.96,7.62s-.83,5.24-2.5,7.98c-1.66,2.74-3.82,5.17-6.48,7.31-2.65,2.13-5.7,4.12-9.13,5.96-6.42,3.4-13.28,5.9-20.6,7.49,1.25,1.28,3.89,4.5,7.93,9.65,4.04,5.15,7.73,9.46,11.08,12.92,3.35,3.47,5.94,5.2,7.78,5.2l1.72-.62c.38,0,.57.15.57.44s-.63,1.14-1.9,2.55c-1.27,1.4-2.37,2.47-3.3,3.2-.94.73-2.21,1.09-3.82,1.09s-3.44-.78-5.49-2.34c-2.05-1.56-4.28-3.76-6.71-6.61-2.43-2.84-4.61-5.52-6.55-8.04-1.94-2.51-4.16-5.48-6.66-8.89-2.5-3.41-4.21-5.73-5.15-6.94-.35.56-1.23,1.93-2.65,4.13-1.42,2.2-2.46,3.82-3.12,4.86-.66,1.04-1.61,2.56-2.86,4.55-1.25,1.99-2.22,3.6-2.91,4.81-1.91,3.22-3.23,5.64-3.98,7.23-.75,1.6-1.97,2.39-3.67,2.39l-1.82-.05-1.56.05c-2.15,0-3.22-.9-3.22-2.7,0-1.35.58-3.29,1.74-5.8,1.16-2.51,7.32-11.89,18.49-28.14,11.16-16.24,17.32-24.91,18.46-26,1.14-1.09,1.99-1.71,2.55-1.85.42-.31.69-.47.83-.47l.94.16.88-.16c.31,0,.59.13.83.39.24.26.42.42.52.49,1.46,1.08,2.18,1.98,2.18,2.7s-.18,1.43-.55,2.11-1.36,2.19-2.99,4.55c-1.63,2.36-3.77,5.42-6.42,9.18-2.65,3.76-4.57,6.49-5.75,8.19,2.84-.14,6.26-1,10.25-2.6,3.99-1.59,7.72-3.51,11.21-5.75,3.48-2.24,6.47-4.66,8.95-7.28,2.48-2.62,3.72-4.9,3.72-6.84,0-1.04-.54-1.98-1.61-2.83-1.08-.85-2.43-1.52-4.06-2-3.26-.97-6.94-1.46-11.03-1.46s-9.28.88-15.55,2.65c-6.28,1.77-10.85,3.46-13.73,5.07-2.88,1.61-4.96,2.98-6.24,4.11-1.28,1.13-1.92,1.92-1.92,2.37,0,.24.36.36,1.07.36s1.34-.18,1.9-.55c.55-.36.88-.55.99-.55Z"/>
      <path class="cls-1" d="m103.34,39.16c2.63,0,3.95.9,3.95,2.71,0,.97-.23,1.68-.68,2.13s-1.41,1.95-2.89,4.5c-1.47,2.55-3.1,5.81-4.89,9.78-1.79,3.97-2.94,7.36-3.46,10.17-.1.35-.16.83-.16,1.46,0,1.91.52,2.86,1.56,2.86s2.27-.49,3.69-1.48c1.42-.99,2.69-2.05,3.8-3.17,1.11-1.13,2.19-2.28,3.25-3.46,1.06-1.18,1.69-1.85,1.9-2.03.21-.17.52-.26.94-.26.66,0,1.06.5,1.2,1.51.14,1.01.21,2.05.21,3.12s-.1,1.82-.31,2.24c-1.01,1.98-3.22,4.35-6.63,7.12-3.42,2.77-6.52,4.16-9.31,4.16s-4.85-.85-6.16-2.55c-1.32-1.7-1.98-3.58-1.98-5.64s.35-3.88,1.04-5.44c-2.88,3.75-6.18,6.92-9.91,9.52-3.73,2.6-6.77,3.9-9.13,3.9s-4.28-.71-5.77-2.13c-1.91-1.77-2.86-4.22-2.86-7.36s.7-6.29,2.11-9.46c1.4-3.17,3.25-6.07,5.54-8.69s4.8-5,7.54-7.15c5.75-4.51,11.06-6.76,15.91-6.76,1.87,0,3.4.31,4.58.94,1.18.62,1.92,1.4,2.24,2.34.83-1.25,1.53-2.04,2.11-2.37.57-.33,1.43-.49,2.57-.49Zm-6.92,5.77c-5.93,0-12.07,3.29-18.41,9.88-2.25,2.36-4.33,5.18-6.21,8.48-1.89,3.29-2.83,5.55-2.83,6.76s.35,1.82,1.04,1.82c.97,0,3.67-1.92,8.11-5.75,4.44-3.83,7.39-6.65,8.84-8.45,1.59-2.01,4.75-6.26,9.47-12.74Z"/>
      <path class="cls-1" d="m132.47,66.99c0,1.04-.1,1.79-.31,2.24-1.7,3.47-4.4,6.27-8.11,8.4-3.71,2.13-6.94,3.2-9.67,3.2s-5.1-.92-7.07-2.76c-1.98-1.84-2.96-3.71-2.96-5.62s.95-4.68,2.86-8.32c1.91-3.64,3.81-7,5.72-10.09,1.91-3.09,2.86-4.76,2.86-5.02s-.36-.77-1.07-1.53c-.71-.76-1.07-1.33-1.07-1.69s.72-1.32,2.16-2.86c1.44-1.54,3.19-3.07,5.25-4.58,2.06-1.51,3.64-2.26,4.73-2.26s2.07.49,2.94,1.46c.87.97,1.3,1.86,1.3,2.65s-4.13,8.3-12.38,22.52c-.1.21-.39.67-.86,1.38-.47.71-.83,1.3-1.09,1.77-.26.47-.56,1.03-.91,1.69-.69,1.39-1.04,2.55-1.04,3.48,0,1.18.8,1.77,2.39,1.77s3.25-.55,4.97-1.64c1.72-1.09,3.2-2.3,4.45-3.61,3.26-3.5,5.11-5.25,5.57-5.25.9,0,1.35,1.56,1.35,4.68Zm8.43-45.4c0,1.98-.92,3.96-2.76,5.96-1.84,1.99-3.75,2.99-5.75,2.99s-2.99-1.04-2.99-3.12.88-4.07,2.63-5.96c1.75-1.89,3.68-2.83,5.8-2.83.94,0,1.68.26,2.24.78.55.52.83,1.25.83,2.18Z"/>
      <path class="cls-1" d="m176.13,2.11c1.27.99,1.9,2.45,1.9,4.39s-1.08,4.99-3.22,9.13c-2.15,4.14-4.73,8.37-7.75,12.69s-6.43,8.9-10.25,13.76c-6.03,7.7-11.82,14.61-17.37,20.75-.03.42-.18,1.19-.44,2.31-.26,1.13-.39,2.26-.39,3.41s.53,2.18,1.59,3.09c1.06.92,2.37,1.38,3.93,1.38s3.23-.55,5.02-1.66c1.79-1.11,3.34-2.34,4.66-3.69,3.47-3.57,5.62-5.36,6.45-5.36s1.25,1.27,1.25,3.8v1.04c0,1.35-.24,2.34-.73,2.96-2.91,3.57-6.19,6.23-9.83,7.98-3.64,1.75-7.09,2.63-10.35,2.63s-5.74-1-7.44-2.99c-1.7-1.99-2.55-4.72-2.55-8.19,0-6.76,1.81-14.71,5.43-23.85,3.62-9.14,7.71-16.91,12.25-23.33C158.51,7.87,166.33.62,171.74.62c1.66,0,3.13.49,4.39,1.48Zm-6.74,7.15c0-.52-.17-.78-.52-.78-1.21,0-4.4,3.47-9.57,10.4-5.17,6.93-8.9,12.46-11.21,16.59-2.31,4.13-4.48,9.31-6.53,15.55,4.09-4.85,9.75-12.42,16.98-22.7,7.23-10.28,10.84-16.63,10.84-19.06Z"/>
      <path class="cls-1" d="m161.8,68.29l-.05.83c0,.87.33,1.61.99,2.24.66.62,1.27.94,1.82.94,4.16,0,7.84-.62,11.05-1.87s4.81-2.5,4.81-3.75c0-.59-.58-1.1-1.74-1.53-1.16-.43-3.12-.97-5.88-1.61-2.76-.64-4.76-1.14-6.01-1.51s-2.24-.7-2.96-1.01c-.73-.31-1.47-.75-2.24-1.3-1.63-1.14-2.44-2.85-2.44-5.12s.84-4.52,2.52-6.76c1.68-2.24,3.79-4.15,6.32-5.75,2.53-1.59,5.25-3,8.17-4.21,5.76-2.39,10.59-3.59,14.51-3.59s6.22.83,7.13,2.5c.28.59.42,1.25.42,1.98v.36c0,1.84-.39,3.28-1.17,4.32-.78,1.04-2.01,1.98-3.69,2.81s-3.02,1.25-4,1.25-1.61-.07-1.87-.21c-.26-.14-.48-.32-.65-.55-.17-.22-.39-.39-.65-.49-.26-.1-.39-.36-.39-.78s.17-.84.52-1.27c.35-.43.59-.89.73-1.38-2.29.1-4.68.63-7.18,1.59-2.5.95-4.64,2.02-6.42,3.2s-3.27,2.31-4.45,3.38c-1.18,1.08-1.77,1.86-1.77,2.37s.8.91,2.39,1.22c7.18,1.42,11.89,2.65,14.15,3.69s3.81,2.22,4.68,3.54c.87,1.32,1.3,2.51,1.3,3.59,0,2.22-.88,4.32-2.65,6.29-1.77,1.98-3.95,3.59-6.55,4.84-5.58,2.74-10.45,4.11-14.59,4.11s-7-.63-8.58-1.9c-1.58-1.27-2.37-2.76-2.37-4.5s.44-3.34,1.33-4.81c.88-1.47,2.02-2.21,3.41-2.21s2.08.36,2.08,1.09Z"/>
      <path class="cls-1" d="m241.01,63.35c.24,1.59.36,2.85.36,3.77s-.17,1.72-.49,2.39c-.33.68-1.06,1.63-2.18,2.86-1.13,1.23-2.47,2.47-4.03,3.72-3.81,3.02-7.71,4.53-11.7,4.53-5.72,0-8.58-2.53-8.58-7.59,0-4.4,3.83-13.18,11.49-26.32.28-.49.47-.83.57-1.04-2.67,1.87-7.78,6.98-15.32,15.32-7.54,8.34-12.56,14.24-15.06,17.71-.21.31-.73.66-1.56,1.04-.83.38-1.48.57-1.95.57s-.97-.15-1.51-.44c-.54-.29-.88-.44-1.01-.44-.45,0-.68-.15-.68-.44s.62-1.89,1.85-4.79c1.23-2.89,2.85-6.49,4.86-10.79,5.51-11.86,13.71-27.29,24.6-46.29,3.81-6.66,6.79-11.37,8.95-14.15,1.53-1.98,4.09-2.96,7.7-2.96.76,0,1.2.23,1.3.68.1.45.16.94.16,1.46s-.1,1.04-.31,1.56l-5.56,8.69c-11.03,17.2-19.33,31.45-24.91,42.75,5.41-6.59,10.66-11.67,15.76-15.24,3.16-2.25,5.52-3.38,7.1-3.38s3.01.25,4.29.75c1.28.5,1.92,1.71,1.92,3.62,0,.69-1.13,3.26-3.38,7.7-6.76,13.31-10.14,20.71-10.14,22.18s.61,2.21,1.82,2.21c1.77,0,4.49-1.72,8.17-5.15,2.77-2.6,4.52-4.26,5.25-4.99.42-.31.8-.47,1.14-.47.66,0,1.02.33,1.09.99Z"/>
      <path class="cls-1" d="m272.43,39.06c1.04,0,2.11.47,3.2,1.4,1.09.94,1.64,2.37,1.64,4.29s-.68,4.42-2.03,7.49c-1.35,3.07-3.21,6.19-5.57,9.36-2.36,3.17-4.95,6.16-7.78,8.95-2.83,2.79-5.88,5.08-9.15,6.87s-6.25,2.68-8.92,2.68-4.81-.84-6.42-2.52-2.42-4.02-2.42-7.02.74-6.32,2.21-9.96c1.47-3.64,3.37-6.86,5.7-9.65,2.32-2.79,4.84-5.3,7.54-7.52,5.65-4.54,10.61-6.81,14.88-6.81,1.91,0,3.35.47,4.32,1.4.35.31.52.59.52.83v.31c.48-.07,1.25-.1,2.29-.1Zm-5.25,6.92h-.36c-1.21,0-1.82-.88-1.82-2.65-2.53.83-5.18,2.29-7.96,4.37-2.77,2.08-5.25,4.54-7.44,7.39-4.44,5.69-6.69,10.49-6.76,14.41,0,1.94.71,2.91,2.13,2.91s3.54-.94,6.34-2.81,5.59-4.54,8.35-8.01c2.76-3.47,4.82-6.47,6.19-9.02,1.37-2.55,2.05-4.28,2.05-5.2s-.24-1.38-.73-1.38Z"/>
      <path class="cls-1" d="m305.09,23.35l.94-.1c.52,0,.94.45,1.25,1.35.31.9.47,1.51.47,1.82s-.35.9-1.04,1.77l-14.82,22.57c5.2-5.2,10.49-9,15.86-11.39,2.08-.9,3.96-1.35,5.64-1.35s3.03.55,4.06,1.64,1.53,2.45,1.53,4.08-.45,3.64-1.35,6.03c-.9,2.39-2.12,4.94-3.67,7.65-1.54,2.7-3.42,5.43-5.62,8.17-2.2,2.74-4.51,5.22-6.92,7.44-2.41,2.22-5.04,4.02-7.88,5.41-2.84,1.39-5.34,2.08-7.49,2.08-4.33,0-6.5-1.99-6.5-5.98-4.06,6.21-8.74,13.56-14.04,22.05-5.3,8.49-8.15,12.98-8.53,13.47-.38.49-.7.73-.96.73s-.66-.16-1.2-.47c-.54-.31-1.1-.83-1.69-1.56-.59-.73-.89-1.79-.91-3.17-.02-1.39.39-2.79,1.22-4.21,4.68-7.8,13.7-22.48,27.07-44.03s20.6-32.69,21.71-33.42c.62-.42,1.25-.62,1.87-.62l.99.05Zm4.58,23.92c0-.73-.35-1.09-1.04-1.09-1.87,0-5.83,2.88-11.88,8.63-6.05,5.76-10.86,11.01-14.43,15.76.9,1.11,2.24,1.66,4,1.66s4.06-.95,6.87-2.86c2.81-1.91,5.41-4.17,7.8-6.79s4.44-5.37,6.14-8.24c1.7-2.88,2.55-5.23,2.55-7.07Z"/>
    </g>
  </g>
</svg>